<svg id="svg" version="1.1" width="512" height="512" xmlns="http://www.w3.org/2000/svg"><path d="M260.500 60.668 C 259.400 60.919,251.316 62.935,242.537 65.149 C 230.732 68.127,222.649 69.500,211.511 70.422 L 196.449 71.668 172.490 84.099 L 148.532 96.531 136.280 110.515 C 129.542 118.207,123.140 126.300,122.053 128.500 C 120.794 131.049,118.818 140.665,116.608 155.000 C 113.668 174.068,113.058 181.008,112.611 200.500 C 112.144 220.817,112.323 224.842,114.139 235.000 C 117.125 251.693,131.403 309.249,136.466 325.000 C 138.853 332.425,141.026 341.251,141.296 344.613 C 141.565 347.976,142.745 352.897,143.919 355.549 C 145.092 358.201,146.703 364.398,147.499 369.320 C 149.104 379.242,149.380 379.787,158.083 390.187 C 173.775 408.938,179.961 414.490,212.287 438.837 L 235.075 456.000 265.472 456.000 L 295.869 456.000 303.184 450.035 C 307.208 446.755,312.519 442.367,314.987 440.285 C 317.455 438.203,325.867 431.224,333.679 424.776 C 345.581 414.952,349.726 410.739,359.259 398.776 C 365.515 390.924,371.366 383.375,372.262 382.000 C 374.402 378.712,375.807 372.165,377.046 359.695 C 377.604 354.088,378.923 346.777,379.979 343.448 C 382.608 335.160,388.614 311.816,390.000 304.500 C 390.625 301.200,393.317 288.150,395.982 275.500 C 402.217 245.904,401.973 247.660,401.948 232.500 C 401.937 225.350,401.964 217.399,402.009 214.831 C 402.055 212.262,400.986 205.512,399.636 199.831 C 398.285 194.149,396.646 186.858,395.994 183.629 C 394.708 177.264,391.638 169.597,383.526 152.500 C 376.844 138.415,376.295 136.491,375.616 124.743 C 374.823 111.006,376.047 105.941,378.879 111.250 C 380.962 115.155,382.440 117.427,384.500 119.893 C 385.600 121.209,387.662 123.684,389.081 125.393 C 392.051 128.968,393.376 132.000,391.969 132.000 C 391.436 132.000,391.000 132.713,391.000 133.583 C 391.000 134.454,390.452 134.984,389.782 134.761 C 388.201 134.234,383.830 123.000,385.205 123.000 C 385.837 123.000,385.760 122.416,385.009 121.511 C 382.137 118.051,380.946 123.061,383.477 127.955 C 384.289 129.526,385.063 132.238,385.195 133.982 C 385.328 135.725,385.789 137.369,386.219 137.635 C 386.648 137.901,387.000 138.607,387.000 139.205 C 387.000 140.420,382.501 135.856,381.682 133.810 C 381.393 133.087,381.123 133.463,381.079 134.648 C 380.978 137.394,386.013 146.995,391.074 153.707 C 393.233 156.571,395.000 159.804,395.000 160.892 C 395.000 163.285,396.874 168.459,397.510 167.823 C 397.760 167.573,397.451 164.473,396.823 160.934 C 395.954 156.037,395.973 151.825,396.902 143.299 C 397.859 134.516,397.861 131.602,396.909 129.799 C 396.242 128.534,390.641 120.712,384.463 112.415 L 373.231 97.330 358.365 88.751 C 328.454 71.490,330.466 72.304,313.500 70.606 C 303.118 69.567,293.882 67.887,283.500 65.146 C 266.416 60.637,263.301 60.031,260.500 60.668 M265.533 67.750 C 264.280 70.970,264.486 71.502,266.858 71.169 C 268.155 70.987,270.366 71.126,271.770 71.478 L 274.324 72.119 271.548 73.560 C 267.821 75.493,265.076 75.376,264.292 73.250 C 263.936 72.287,263.229 71.220,262.720 70.877 C 262.167 70.506,262.253 69.395,262.932 68.127 C 264.304 65.563,266.509 65.243,265.533 67.750 M256.843 70.008 C 257.032 71.301,258.173 73.135,259.380 74.084 C 260.648 75.081,262.147 78.065,262.933 81.155 C 264.723 88.189,266.046 91.000,267.566 91.000 C 268.251 91.000,270.696 89.425,273.000 87.500 L 277.189 84.000 274.241 84.000 C 272.547 84.000,270.232 84.982,268.801 86.308 L 266.311 88.616 265.339 84.975 L 264.367 81.334 270.167 79.613 C 277.267 77.505,279.649 75.502,277.785 73.207 C 276.672 71.837,276.768 71.733,278.500 72.426 C 282.263 73.933,284.313 74.315,283.759 73.408 C 283.455 72.908,284.959 72.432,287.103 72.350 C 289.246 72.267,290.993 72.492,290.985 72.850 C 290.955 74.097,289.484 75.709,287.350 76.832 C 286.160 77.458,284.510 79.990,283.652 82.507 L 282.104 87.052 285.164 85.276 C 286.847 84.299,289.689 81.801,291.480 79.724 C 294.260 76.500,295.083 76.078,297.118 76.831 C 299.729 77.798,302.310 77.310,301.502 76.003 C 301.221 75.549,302.772 76.038,304.948 77.089 C 307.123 78.140,310.275 79.000,311.952 79.000 C 316.971 79.000,315.396 80.675,309.750 81.340 C 306.471 81.727,300.621 83.844,294.167 86.980 C 282.732 92.535,281.000 92.933,281.000 90.000 C 281.000 87.232,280.325 87.451,275.612 91.750 C 273.350 93.813,270.375 96.238,269.000 97.141 C 267.625 98.043,266.874 99.168,267.331 99.641 C 267.788 100.113,281.589 100.725,298.000 101.000 C 314.410 101.275,328.155 101.819,328.543 102.208 C 329.754 103.422,323.258 140.143,321.016 144.756 C 319.878 147.097,318.692 150.288,318.380 151.848 C 317.886 154.320,318.242 154.884,321.157 156.250 C 322.995 157.112,328.957 158.775,334.405 159.946 C 339.853 161.117,349.485 163.428,355.810 165.081 C 368.399 168.372,374.146 168.659,364.271 165.504 C 360.159 164.190,357.679 162.769,356.874 161.265 C 356.208 160.021,355.435 159.231,355.156 159.511 C 354.877 159.790,353.566 159.002,352.244 157.759 C 350.269 155.904,348.705 155.500,343.503 155.500 C 339.834 155.500,337.237 155.079,337.333 154.500 C 337.427 153.939,334.518 153.370,330.701 153.203 C 323.279 152.879,322.490 152.215,323.919 147.500 C 324.672 145.015,324.843 144.886,324.914 146.750 C 324.982 148.538,325.565 148.984,327.750 148.921 C 329.262 148.878,329.938 148.615,329.250 148.338 C 328.563 148.060,328.000 147.218,328.000 146.466 C 328.000 145.715,327.267 144.689,326.372 144.188 C 325.258 143.565,325.100 143.056,325.872 142.579 C 326.492 142.196,327.000 141.009,327.000 139.941 C 327.000 135.933,328.111 136.484,355.000 153.839 C 359.675 156.857,364.701 160.265,366.169 161.413 C 367.637 162.561,370.653 164.590,372.872 165.921 C 375.091 167.253,376.717 168.649,376.486 169.023 C 376.255 169.397,377.963 170.259,380.283 170.938 C 385.676 172.517,389.244 174.796,388.417 176.134 C 387.545 177.545,385.687 177.163,347.871 167.800 C 326.621 162.539,314.349 159.946,312.681 160.365 C 309.172 161.246,299.741 173.515,280.780 201.868 C 272.600 214.100,270.537 216.000,265.435 216.000 C 262.784 216.000,262.125 217.727,264.437 218.614 C 265.227 218.917,265.629 219.803,265.330 220.583 C 264.443 222.893,267.609 222.221,269.253 219.750 C 270.703 217.570,270.783 217.671,271.815 223.000 C 273.097 229.619,273.930 252.000,272.895 252.000 C 271.474 252.000,269.140 242.400,268.397 233.500 C 267.984 228.550,267.701 224.238,267.768 223.917 C 267.834 223.596,267.255 223.333,266.481 223.333 C 264.571 223.333,263.518 230.883,264.598 236.828 C 265.065 239.398,265.537 245.775,265.647 251.000 C 265.830 259.714,267.430 274.743,268.495 277.750 C 268.770 278.527,268.025 279.000,266.528 279.000 C 265.202 279.000,263.840 279.450,263.500 280.000 C 263.113 280.626,265.242 281.000,269.198 281.000 C 272.671 281.000,276.973 281.419,278.757 281.930 C 281.336 282.670,282.000 282.568,282.000 281.430 C 282.000 280.644,282.450 280.000,283.000 280.000 C 283.550 280.000,284.000 281.003,284.000 282.228 C 284.000 283.666,286.184 286.502,290.161 290.228 C 293.549 293.403,295.868 296.000,295.314 296.000 C 293.330 296.000,287.434 292.618,283.828 289.411 C 279.984 285.993,276.917 285.206,265.639 284.741 L 259.778 284.500 259.940 252.573 C 260.028 235.013,260.317 220.296,260.581 219.869 C 261.774 217.938,259.042 212.982,248.950 198.770 C 242.986 190.371,234.820 178.860,230.803 173.190 C 226.786 167.519,222.709 162.159,221.743 161.278 C 219.298 159.050,215.560 159.398,197.361 163.547 C 188.637 165.535,175.875 168.433,169.000 169.985 C 162.125 171.538,152.825 173.751,148.333 174.904 C 133.334 178.754,132.541 177.177,145.813 169.893 C 152.749 166.086,158.224 162.734,178.000 150.189 C 181.575 147.921,188.386 143.797,193.136 141.023 C 197.885 138.250,202.337 135.299,203.028 134.466 C 204.567 132.612,203.864 123.433,201.416 113.418 C 199.508 105.612,198.405 103.759,197.349 106.583 C 196.954 107.637,195.807 109.093,194.799 109.818 C 193.791 110.544,193.233 111.567,193.558 112.093 C 193.883 112.619,193.778 112.928,193.324 112.779 C 192.126 112.387,182.000 118.804,182.000 119.956 C 182.000 120.491,183.012 121.456,184.250 122.100 C 187.038 123.551,190.000 126.569,190.000 127.958 C 190.000 128.531,191.463 129.016,193.250 129.035 C 195.037 129.055,197.565 129.662,198.867 130.383 C 201.072 131.606,201.107 131.750,199.367 132.480 C 198.340 132.911,187.305 133.580,174.844 133.967 C 155.845 134.556,151.924 134.933,150.553 136.304 C 148.731 138.126,140.912 155.948,136.208 169.000 C 130.953 183.582,122.342 212.178,121.002 219.500 C 120.297 223.350,119.258 227.625,118.693 229.000 C 117.707 231.402,117.644 231.343,117.083 227.500 C 116.762 225.300,116.753 216.750,117.063 208.500 C 117.373 200.250,117.731 194.625,117.858 196.000 C 117.986 197.375,118.682 199.850,119.406 201.500 L 120.721 204.500 121.938 200.000 C 122.607 197.525,124.267 191.675,125.627 187.000 C 127.684 179.929,128.934 169.803,128.990 159.761 C 128.996 158.804,131.138 155.595,133.750 152.629 C 136.363 149.663,140.847 144.310,143.716 140.733 C 146.666 137.054,151.009 133.033,153.716 131.473 C 157.619 129.223,176.850 116.743,197.146 103.289 L 200.792 100.872 232.896 100.735 C 250.553 100.660,265.000 100.518,265.000 100.421 C 265.000 100.323,262.413 98.295,259.250 95.913 C 256.087 93.531,250.753 89.089,247.396 86.041 C 244.038 82.994,239.651 79.026,237.646 77.224 C 235.641 75.423,234.000 73.527,234.000 73.012 C 234.000 72.497,236.363 72.097,239.250 72.124 C 242.137 72.151,245.767 71.684,247.315 71.086 C 251.643 69.416,252.553 69.782,250.227 72.258 C 247.338 75.334,248.215 80.000,251.681 80.000 C 252.921 80.000,253.000 79.705,252.063 78.576 C 251.160 77.488,251.155 76.134,252.042 72.826 C 252.680 70.447,253.423 68.139,253.693 67.697 C 254.591 66.228,256.495 67.625,256.843 70.008 M244.000 74.885 C 246.970 77.344,248.152 77.561,247.362 75.500 C 247.045 74.675,246.421 74.000,245.975 74.000 C 245.529 74.000,244.339 73.733,243.332 73.407 C 242.024 72.983,242.215 73.406,244.000 74.885 M229.072 77.540 C 233.828 79.193,244.987 88.340,243.755 89.575 C 242.405 90.930,218.898 80.571,218.233 78.327 C 217.931 77.309,219.539 76.649,223.572 76.136 C 224.161 76.061,226.636 76.693,229.072 77.540 M334.702 83.109 C 335.500 84.744,337.682 86.198,341.202 87.441 C 344.116 88.470,347.625 90.063,349.000 90.981 C 350.375 91.899,353.637 93.631,356.250 94.830 C 359.018 96.100,361.000 97.675,361.000 98.604 C 361.000 99.480,362.246 101.391,363.768 102.849 C 368.732 107.604,370.303 110.842,369.101 113.842 C 368.385 115.626,368.350 117.815,368.994 120.500 C 371.202 129.714,369.803 131.030,363.430 125.735 C 361.268 123.939,356.575 120.478,353.000 118.042 C 337.129 107.231,334.117 104.612,332.034 99.815 C 330.021 95.178,329.111 82.222,330.688 80.646 C 331.821 79.512,333.426 80.497,334.702 83.109 M204.272 86.674 C 203.734 88.228,203.413 90.287,203.559 91.250 C 203.716 92.289,203.182 93.000,202.245 93.000 C 201.377 93.000,200.963 92.704,201.325 92.342 C 201.687 91.980,201.521 91.128,200.957 90.448 C 200.239 89.583,200.449 88.126,201.656 85.596 C 203.687 81.337,205.814 82.214,204.272 86.674 M334.999 95.750 C 335.000 100.257,335.271 101.000,336.917 101.000 C 337.971 101.000,338.983 101.402,339.167 101.893 C 339.350 102.384,341.817 104.146,344.649 105.808 C 349.347 108.564,349.983 108.700,351.901 107.357 C 354.687 105.406,355.609 106.151,356.381 110.980 C 356.895 114.196,357.857 115.608,361.162 118.003 C 365.258 120.969,368.000 121.820,368.000 120.122 C 368.000 119.640,367.372 118.724,366.605 118.087 C 365.837 117.450,364.917 115.370,364.559 113.464 C 364.171 111.397,363.323 110.000,362.454 110.000 C 361.654 110.000,359.762 107.774,358.250 105.053 C 356.737 102.332,354.466 99.632,353.203 99.053 C 350.397 97.767,349.928 97.743,350.250 98.900 C 350.387 99.395,350.050 99.957,349.500 100.150 C 348.950 100.343,348.344 99.375,348.154 98.000 C 347.348 92.174,343.000 91.842,343.000 97.607 C 343.000 101.068,341.402 102.212,340.361 99.498 C 339.385 96.954,340.944 92.960,343.280 92.020 C 345.614 91.081,345.300 90.988,338.749 90.678 L 334.999 90.500 334.999 95.750 M315.973 94.426 C 314.124 96.277,297.000 97.799,297.000 96.114 C 297.000 95.626,299.587 94.820,302.750 94.323 C 310.187 93.153,317.191 93.208,315.973 94.426 M235.250 106.505 C 233.463 107.331,232.001 108.117,232.002 108.253 C 232.003 108.389,245.840 108.600,262.752 108.722 C 279.663 108.844,299.462 109.228,306.750 109.575 C 319.834 110.197,322.740 109.570,317.606 107.230 C 316.087 106.538,301.205 105.933,276.856 105.572 C 244.028 105.087,238.032 105.221,235.250 106.505 M209.000 107.469 C 209.000 108.330,208.410 108.711,207.573 108.390 C 206.542 107.994,206.292 108.399,206.672 109.852 C 207.688 113.739,211.936 113.258,211.985 109.250 C 211.993 108.563,212.648 108.000,213.441 108.000 C 214.234 108.000,215.160 107.550,215.500 107.000 C 215.868 106.405,214.677 106.000,212.559 106.000 C 210.096 106.000,209.000 106.452,209.000 107.469 M320.429 113.428 C 320.094 114.763,320.296 116.675,320.879 117.678 C 321.747 119.170,321.945 118.731,321.970 115.250 C 322.003 110.514,321.353 109.744,320.429 113.428 M336.835 117.401 C 337.851 115.651,337.942 115.642,337.970 117.281 C 337.986 118.261,338.788 119.353,339.750 119.708 C 343.162 120.967,344.078 124.000,341.047 124.000 C 337.579 124.000,334.124 121.795,333.131 118.947 C 331.929 115.498,332.979 114.159,334.564 117.119 C 335.692 119.227,335.770 119.236,336.835 117.401 M193.777 119.944 C 195.550 121.563,197.000 123.138,197.000 123.444 C 197.000 125.077,193.512 123.573,190.235 120.527 C 187.071 117.585,186.810 117.050,188.527 117.027 C 189.642 117.012,192.005 118.325,193.777 119.944 M208.000 119.859 C 208.000 124.006,208.931 126.003,210.857 125.985 C 212.017 125.974,212.142 125.742,211.282 125.195 C 210.612 124.770,209.951 122.942,209.813 121.135 C 209.495 116.951,208.000 115.900,208.000 119.859 M219.423 121.750 C 219.838 122.162,222.119 122.500,224.491 122.500 C 226.863 122.500,228.597 122.162,228.343 121.750 C 228.089 121.338,225.809 121.000,223.274 121.000 C 220.740 121.000,219.007 121.338,219.423 121.750 M171.683 125.158 C 169.657 126.198,168.000 127.439,168.000 127.916 C 168.000 128.394,169.555 127.992,171.456 127.022 C 175.062 125.184,180.082 125.389,179.713 127.360 C 179.592 128.007,181.121 128.634,183.250 128.810 C 188.718 129.263,187.839 127.806,181.182 125.384 C 175.435 123.294,175.322 123.291,171.683 125.158 M361.250 129.652 C 365.184 131.654,364.643 132.849,360.173 132.032 C 355.438 131.166,354.000 130.313,354.000 128.374 C 354.000 126.720,356.273 127.121,361.250 129.652 M349.565 128.895 C 349.260 129.388,349.684 130.048,350.506 130.364 C 351.328 130.679,352.000 131.589,352.000 132.385 C 352.000 133.181,353.312 134.413,354.916 135.123 C 357.380 136.214,357.884 137.078,358.173 140.707 C 358.506 144.888,357.529 146.097,355.450 144.077 C 354.928 143.569,353.185 143.007,351.577 142.827 C 347.820 142.407,346.858 140.000,350.448 140.000 C 353.808 140.000,354.760 137.497,352.394 134.883 C 350.928 133.263,349.714 132.945,346.523 133.344 C 341.264 134.001,332.357 132.787,333.000 131.500 C 333.275 130.950,335.975 130.444,339.000 130.376 C 342.025 130.308,345.625 129.774,347.000 129.190 C 350.191 127.833,350.224 127.829,349.565 128.895 M209.110 132.911 C 207.176 134.135,216.059 152.337,219.781 154.777 C 222.168 156.341,226.435 156.500,266.099 156.500 C 307.658 156.500,309.891 156.407,311.894 154.595 C 313.052 153.547,314.000 151.801,314.000 150.714 C 314.000 149.628,315.500 146.650,317.334 144.098 C 319.168 141.545,320.964 138.281,321.324 136.845 C 321.932 134.423,321.656 134.151,317.547 133.116 C 312.161 131.760,211.229 131.569,209.110 132.911 M367.792 138.371 C 369.983 142.086,371.687 150.000,370.295 150.000 C 369.811 150.000,368.827 147.863,368.109 145.250 C 366.878 140.770,366.749 140.641,365.852 142.972 C 364.908 145.424,363.298 146.955,361.635 146.985 C 361.159 146.993,361.497 145.891,362.385 144.535 C 363.273 143.180,364.000 141.191,364.000 140.117 C 364.000 138.186,364.939 135.000,365.508 135.000 C 365.670 135.000,366.698 136.517,367.792 138.371 M227.500 138.000 C 229.000 138.645,228.298 138.877,224.691 138.930 C 221.724 138.973,220.119 138.617,220.500 138.000 C 221.238 136.806,224.721 136.806,227.500 138.000 M295.370 141.030 C 294.687 141.713,293.522 141.734,291.920 141.094 C 289.646 140.185,289.708 140.123,292.950 140.063 C 295.318 140.020,296.077 140.323,295.370 141.030 M305.767 145.001 C 304.292 147.363,303.902 147.089,304.653 144.218 C 304.969 143.010,305.617 142.263,306.093 142.558 C 306.569 142.852,306.423 143.951,305.767 145.001 M202.000 147.000 C 201.175 147.533,198.847 147.976,196.827 147.985 C 194.384 147.995,192.158 148.837,190.182 150.500 C 188.548 151.875,186.511 153.000,185.655 153.000 C 184.800 153.000,183.641 153.787,183.080 154.750 C 182.519 155.713,182.047 156.157,182.030 155.737 C 181.992 154.786,168.382 161.572,167.515 162.975 C 166.607 164.445,170.193 164.241,172.527 162.690 C 173.612 161.969,176.412 160.772,178.750 160.030 C 181.088 159.287,183.000 158.272,183.000 157.773 C 183.000 157.274,183.909 157.154,185.020 157.506 C 186.531 157.986,187.837 157.248,190.204 154.574 C 192.613 151.853,194.146 151.000,196.628 151.000 C 198.670 151.000,200.937 150.078,202.694 148.532 C 205.440 146.116,204.971 145.080,202.000 147.000 M335.165 149.877 C 334.136 150.529,334.269 150.837,335.749 151.224 C 336.946 151.537,337.667 151.214,337.667 150.363 C 337.667 148.799,337.054 148.680,335.165 149.877 M232.000 162.474 C 232.000 162.735,233.303 163.623,234.896 164.446 C 237.019 165.544,239.504 165.784,244.199 165.346 C 250.331 164.773,250.679 164.862,252.351 167.413 C 254.043 169.996,254.039 170.041,252.199 168.892 C 251.064 168.183,249.158 167.994,247.453 168.422 C 245.235 168.979,244.925 169.340,246.052 170.053 C 247.682 171.085,252.085 171.288,254.308 170.435 C 255.129 170.120,255.573 169.085,255.313 168.090 C 254.947 166.689,255.481 166.291,257.810 166.224 C 260.719 166.142,260.752 166.199,259.637 169.320 C 259.012 171.069,258.050 172.831,257.500 173.235 C 256.937 173.648,257.276 173.976,258.275 173.985 C 259.251 173.993,260.467 172.902,260.977 171.561 C 262.434 167.729,264.947 166.984,274.141 167.660 C 282.748 168.292,286.284 169.569,283.797 171.146 C 282.038 172.263,286.368 172.215,291.329 171.064 C 295.217 170.161,296.688 169.355,295.894 168.561 C 295.054 167.721,280.477 165.002,276.809 165.001 C 274.779 165.000,272.815 164.509,272.444 163.910 C 271.967 163.138,275.720 162.915,285.316 163.145 C 292.767 163.325,299.193 163.140,299.598 162.736 C 300.002 162.331,284.958 162.000,266.167 162.000 C 247.375 162.000,232.000 162.213,232.000 162.474 M122.412 165.765 C 121.097 166.654,119.804 171.239,121.093 170.442 C 121.592 170.134,122.000 170.359,122.000 170.941 C 122.000 171.523,121.325 172.000,120.500 172.000 C 119.675 172.000,119.000 171.295,119.000 170.434 C 119.000 168.120,120.893 164.998,122.285 165.015 C 123.124 165.026,123.163 165.258,122.412 165.765 M234.483 168.967 C 235.327 170.599,237.813 173.822,240.009 176.130 C 242.204 178.437,244.000 180.927,244.000 181.663 C 244.000 183.888,245.968 183.164,247.186 180.490 C 248.165 178.342,248.004 177.634,246.070 175.575 C 244.827 174.252,242.758 172.905,241.472 172.582 C 240.185 172.259,238.172 170.646,236.998 168.998 C 234.245 165.131,232.488 165.110,234.483 168.967 M326.228 167.897 C 327.502 168.381,330.538 170.443,332.976 172.480 C 335.414 174.517,340.933 177.955,345.241 180.121 C 349.549 182.287,355.757 186.143,359.037 188.690 C 365.137 193.427,366.348 194.703,363.250 193.127 C 359.504 191.221,351.574 189.998,342.736 189.965 C 336.313 189.940,332.739 189.468,331.000 188.416 C 328.591 186.959,328.672 186.925,333.195 187.505 L 337.891 188.106 337.015 185.053 C 336.330 182.664,336.451 182.000,337.570 182.000 C 338.356 182.000,339.000 181.573,339.000 181.051 C 339.000 179.495,332.477 175.000,330.221 175.000 C 326.547 175.000,322.753 173.086,323.349 171.533 C 323.670 170.697,322.769 169.208,321.200 167.979 L 318.500 165.864 321.206 166.440 C 322.694 166.757,324.954 167.412,326.228 167.897 M317.428 172.079 C 316.643 172.947,316.000 174.185,316.000 174.829 C 316.000 175.473,315.325 176.000,314.500 176.000 C 313.595 176.000,313.000 175.074,313.000 173.667 C 313.000 170.708,313.551 170.185,316.485 170.359 C 318.579 170.484,318.689 170.684,317.428 172.079 M264.461 172.063 C 264.100 172.648,264.593 173.998,265.557 175.063 C 267.627 177.351,266.795 177.480,260.033 175.922 C 254.976 174.756,251.478 175.311,250.675 177.405 C 250.222 178.586,251.829 178.783,260.158 178.571 C 266.653 178.405,270.450 177.890,270.932 177.110 C 271.505 176.183,271.915 176.205,272.710 177.203 C 275.043 180.132,271.491 186.000,267.384 186.000 C 266.116 186.000,264.162 185.016,263.042 183.814 L 261.005 181.629 256.961 183.902 C 253.725 185.721,252.625 185.933,251.458 184.965 C 250.656 184.300,250.000 184.090,250.000 184.500 C 250.000 184.910,249.382 184.732,248.627 184.105 C 247.871 183.478,246.524 183.245,245.632 183.588 C 244.147 184.157,244.155 184.454,245.722 187.106 C 246.663 188.699,248.206 190.248,249.150 190.548 C 250.095 190.848,258.050 191.184,266.829 191.296 C 281.288 191.481,282.987 191.321,284.895 189.595 C 287.366 187.359,287.605 184.747,285.500 183.000 C 284.554 182.215,284.000 182.148,284.000 182.819 C 284.000 183.403,284.457 184.165,285.016 184.510 C 286.959 185.711,284.860 186.999,281.191 186.858 L 277.500 186.716 281.500 186.040 C 284.733 185.494,285.140 185.203,283.624 184.527 C 282.495 184.023,280.375 184.186,278.299 184.936 C 274.201 186.418,274.021 186.309,274.705 182.750 C 275.202 180.160,275.544 180.000,280.558 180.000 C 290.136 180.000,288.886 176.200,278.856 174.829 C 275.433 174.361,271.892 173.308,270.988 172.489 C 269.077 170.760,265.414 170.521,264.461 172.063 M333.045 181.623 C 331.244 182.380,328.881 183.000,327.793 183.000 C 326.705 183.000,324.671 183.900,323.273 185.000 C 321.874 186.100,319.923 187.000,318.937 187.000 C 317.950 187.000,316.414 187.729,315.524 188.619 C 314.633 189.510,313.589 189.923,313.204 189.537 C 312.469 188.802,313.397 188.048,319.925 184.079 C 322.115 182.747,323.732 181.375,323.519 181.031 C 323.306 180.686,326.099 180.369,329.726 180.325 C 336.218 180.247,336.269 180.267,333.045 181.623 M379.500 180.936 C 381.805 181.473,380.531 181.810,374.000 182.389 C 369.325 182.804,364.712 183.366,363.750 183.639 C 360.542 184.548,361.948 182.306,365.250 181.247 C 368.975 180.052,375.130 179.917,379.500 180.936 M340.000 182.382 C 340.000 183.207,340.450 184.160,341.000 184.500 C 341.550 184.840,342.000 184.443,342.000 183.618 C 342.000 182.793,341.550 181.840,341.000 181.500 C 340.450 181.160,340.000 181.557,340.000 182.382 M380.000 184.354 C 380.000 186.395,375.345 191.002,373.298 190.986 C 370.381 190.964,367.000 189.835,367.000 188.883 C 367.000 188.398,368.321 188.000,369.935 188.000 C 374.093 188.000,378.000 186.316,378.000 184.525 C 378.000 183.686,378.450 183.000,379.000 183.000 C 379.550 183.000,380.000 183.609,380.000 184.354 M145.750 188.655 C 149.213 192.130,148.426 192.431,144.021 189.315 C 141.833 187.767,140.033 185.882,140.021 185.128 C 139.997 183.558,141.741 184.632,145.750 188.655 M304.559 195.486 C 306.335 196.846,306.223 196.880,303.250 195.888 C 299.857 194.756,299.079 194.000,301.309 194.000 C 302.029 194.000,303.491 194.669,304.559 195.486 M188.193 196.972 C 198.812 198.057,209.412 199.127,211.749 199.349 C 215.203 199.678,217.211 200.819,222.478 205.443 C 228.530 210.757,233.681 216.705,232.859 217.433 C 232.662 217.608,231.488 218.063,230.250 218.443 C 228.514 218.977,228.000 218.737,228.000 217.396 C 228.000 215.393,220.366 207.751,216.270 205.654 C 214.747 204.873,206.975 203.496,199.000 202.594 C 191.025 201.691,180.900 200.512,176.500 199.975 C 172.100 199.437,166.614 198.998,164.309 198.999 C 160.121 199.000,158.335 197.886,159.500 196.000 C 160.397 194.549,166.487 194.755,188.193 196.972 M366.525 196.394 C 368.233 197.643,367.599 197.854,360.466 198.416 C 356.085 198.761,350.250 199.458,347.500 199.965 C 344.750 200.472,338.675 201.182,334.000 201.543 C 318.064 202.775,316.584 203.298,308.461 210.568 C 303.276 215.208,300.460 217.056,298.924 216.826 C 297.065 216.548,297.996 215.300,305.252 208.342 C 313.741 200.203,313.775 200.183,320.130 199.594 C 325.060 199.137,357.883 195.754,363.559 195.119 C 364.141 195.053,365.476 195.628,366.525 196.394 M258.000 200.031 C 258.000 201.320,260.849 202.484,261.764 201.569 C 262.137 201.196,261.780 200.473,260.971 199.961 C 259.035 198.737,258.000 198.761,258.000 200.031 M368.000 202.515 C 368.000 202.798,366.585 203.890,364.855 204.942 L 361.710 206.855 365.394 207.546 C 371.605 208.711,377.139 218.000,371.622 218.000 C 369.298 218.000,366.511 215.822,367.531 214.802 C 368.256 214.077,354.755 208.161,350.788 207.465 C 342.823 206.069,346.956 202.410,355.371 203.408 C 358.215 203.745,361.168 203.574,362.000 203.023 C 363.560 201.991,368.000 201.615,368.000 202.515 M183.779 204.925 C 188.333 205.365,192.309 205.976,192.615 206.282 C 192.921 206.588,192.183 207.367,190.976 208.013 C 189.221 208.952,187.895 208.850,184.370 207.503 C 180.898 206.177,179.306 206.046,176.894 206.887 C 173.603 208.034,168.020 206.459,166.466 203.945 C 165.859 202.963,166.769 202.844,170.594 203.405 C 173.292 203.800,179.226 204.484,183.779 204.925 M341.694 206.468 C 344.261 208.726,344.324 208.939,342.441 208.968 C 341.309 208.986,339.509 208.339,338.441 207.532 C 337.374 206.724,335.686 206.049,334.691 206.032 C 333.696 206.014,333.160 205.550,333.500 205.000 C 334.615 203.196,338.834 203.952,341.694 206.468 M334.178 208.657 C 335.727 210.383,335.683 210.687,333.488 213.427 L 331.143 216.354 331.703 212.177 C 332.252 208.084,332.203 208.000,329.287 208.000 C 327.580 208.000,325.538 208.853,324.500 210.000 C 323.505 211.100,321.705 212.000,320.500 212.000 C 318.384 212.000,313.763 208.121,315.595 207.882 C 316.093 207.817,317.850 207.641,319.500 207.490 C 321.150 207.338,324.075 206.788,326.000 206.267 C 329.775 205.245,331.588 205.775,334.178 208.657 M204.906 207.495 C 210.762 208.162,215.158 210.014,218.845 213.367 C 221.628 215.898,224.178 220.488,223.293 221.373 C 222.358 222.309,217.801 222.131,218.387 221.182 C 218.947 220.276,214.413 215.000,213.074 215.000 C 212.002 215.000,208.686 216.788,203.156 220.348 C 200.766 221.886,198.554 222.887,198.239 222.572 C 197.924 222.257,197.854 221.883,198.083 221.740 C 198.313 221.596,200.386 220.021,202.691 218.240 C 204.997 216.458,207.809 215.000,208.941 215.000 C 210.074 215.000,211.000 214.622,211.000 214.161 C 211.000 211.701,196.850 208.816,195.500 211.000 C 194.598 212.460,196.926 214.190,198.843 213.485 C 199.581 213.214,201.381 212.745,202.843 212.444 C 205.476 211.901,205.473 211.912,202.500 213.650 C 199.436 215.442,196.249 215.547,194.550 213.914 C 193.239 212.653,191.735 212.762,192.537 214.060 C 193.480 215.585,191.136 220.701,189.168 221.415 C 188.251 221.748,185.700 223.133,183.500 224.494 C 179.763 226.805,179.671 226.968,182.101 226.984 C 185.370 227.004,191.005 225.143,193.081 223.356 C 193.951 222.608,194.963 222.297,195.331 222.664 C 196.682 224.016,195.940 225.784,193.750 226.434 L 191.500 227.102 193.754 228.020 C 194.994 228.526,197.469 228.888,199.254 228.826 C 203.499 228.678,209.000 229.924,209.000 231.034 C 209.000 232.617,202.239 233.217,197.021 232.098 C 194.206 231.494,190.158 231.000,188.027 231.000 C 184.618 231.000,176.308 229.612,172.011 228.326 C 171.193 228.080,173.329 226.894,176.758 225.690 C 183.743 223.236,189.467 218.466,189.729 214.879 L 189.903 212.500 188.201 214.712 C 187.266 215.928,184.250 218.111,181.500 219.563 C 178.750 221.015,174.569 223.505,172.209 225.095 L 167.918 227.988 162.209 225.103 C 154.764 221.341,153.090 219.387,153.733 215.207 C 154.018 213.352,154.734 212.087,155.370 212.310 C 156.744 212.793,156.244 216.217,154.650 217.235 C 153.836 217.755,153.826 217.974,154.615 217.985 C 155.228 217.993,156.874 217.100,158.273 216.000 C 159.671 214.900,161.869 214.014,163.158 214.030 C 165.230 214.057,165.298 214.178,163.750 215.080 C 162.787 215.641,161.327 217.402,160.504 218.993 C 158.203 223.442,160.614 223.853,164.750 219.717 C 168.759 215.708,168.617 213.888,164.115 211.559 C 161.025 209.962,157.518 210.412,158.660 212.259 C 159.068 212.919,158.819 213.006,157.990 212.494 C 156.988 211.874,157.323 211.119,159.392 209.340 C 160.888 208.053,162.455 207.000,162.876 207.000 C 163.296 207.000,165.497 208.589,167.766 210.532 L 171.893 214.064 174.134 211.032 C 176.704 207.557,177.581 207.282,178.221 209.750 C 178.975 212.659,178.136 213.727,171.179 218.713 C 165.600 222.711,164.867 223.552,166.729 223.817 C 167.955 223.991,170.430 223.052,172.229 221.731 C 174.028 220.410,178.105 218.242,181.289 216.914 C 184.473 215.586,188.973 212.658,191.289 210.407 C 193.903 207.866,196.258 206.421,197.500 206.597 C 198.600 206.752,201.933 207.156,204.906 207.495 M348.178 210.774 C 347.507 210.998,346.273 212.505,345.436 214.123 C 344.600 215.741,343.515 216.818,343.027 216.516 C 342.538 216.214,341.851 216.432,341.500 217.000 C 341.149 217.568,340.423 217.761,339.887 217.430 C 339.351 217.099,337.830 217.536,336.508 218.403 C 335.186 219.269,333.866 219.593,333.576 219.123 C 332.877 217.992,335.726 215.635,339.678 214.073 C 341.425 213.382,343.605 211.989,344.522 210.976 C 345.489 209.907,346.861 209.393,347.793 209.751 C 348.862 210.161,348.990 210.503,348.178 210.774 M351.925 213.590 C 352.651 212.716,354.427 212.003,355.872 212.007 L 358.500 212.013 355.500 214.043 C 353.850 215.159,350.369 217.009,347.764 218.154 C 345.158 219.298,343.269 220.627,343.565 221.106 C 343.862 221.585,343.400 221.707,342.540 221.377 C 341.531 220.990,338.763 222.705,334.738 226.212 C 328.017 232.068,325.840 233.260,323.500 232.362 C 320.815 231.331,321.893 230.108,328.250 226.971 C 331.688 225.274,335.531 222.786,336.790 221.443 C 338.050 220.099,339.781 219.000,340.636 219.000 C 342.990 219.000,348.000 215.082,348.000 213.241 C 348.000 211.824,348.166 211.845,349.303 213.399 C 350.487 215.019,350.725 215.036,351.925 213.590 M329.870 215.615 C 330.915 217.907,330.743 218.648,328.480 221.615 C 327.060 223.477,325.307 225.000,324.584 225.000 C 323.861 225.000,322.147 225.883,320.774 226.963 C 318.294 228.914,318.254 228.914,314.428 226.963 C 312.310 225.883,310.110 224.984,309.539 224.964 C 308.967 224.944,307.150 223.805,305.500 222.431 C 303.850 221.058,303.175 220.154,304.000 220.423 C 304.825 220.691,307.722 221.120,310.438 221.375 C 315.565 221.858,315.878 221.715,323.776 215.282 C 327.329 212.388,328.428 212.448,329.870 215.615 M145.597 214.844 C 145.310 215.308,145.531 217.339,146.088 219.357 C 146.973 222.560,147.888 223.386,153.301 225.864 C 156.710 227.424,160.625 229.653,162.000 230.817 C 164.308 232.771,164.346 232.935,162.500 232.957 C 161.400 232.970,158.034 231.833,155.020 230.430 C 151.699 228.884,149.401 228.297,149.187 228.940 C 148.992 229.523,148.394 230.000,147.858 230.000 C 147.321 230.000,147.131 229.597,147.435 229.105 C 147.740 228.612,147.265 227.932,146.382 227.593 C 145.044 227.080,144.992 226.714,146.073 225.412 C 146.937 224.371,147.025 223.622,146.335 223.174 C 145.766 222.803,144.790 221.533,144.168 220.350 C 143.271 218.645,141.741 218.053,136.769 217.487 C 129.819 216.695,128.698 216.298,129.543 214.931 C 129.859 214.419,133.718 214.000,138.118 214.000 C 142.518 214.000,145.883 214.380,145.597 214.844 M325.063 216.156 C 325.029 217.066,322.976 219.152,320.503 220.790 C 316.484 223.452,316.235 223.828,318.157 224.331 C 320.669 224.988,325.497 222.752,326.347 220.538 C 326.671 219.693,326.529 217.989,326.032 216.751 C 325.400 215.180,325.108 215.000,325.063 216.156 M363.054 216.104 C 361.708 216.641,360.021 217.568,359.304 218.163 C 358.302 218.995,358.000 218.754,358.000 217.122 C 358.000 215.325,358.575 215.010,361.750 215.063 C 365.215 215.122,365.314 215.201,363.054 216.104 M356.511 220.110 C 356.216 220.878,353.951 222.445,351.477 223.593 C 347.722 225.334,346.791 225.453,345.847 224.315 C 344.439 222.619,344.466 222.599,350.276 221.022 C 352.902 220.309,355.310 219.307,355.626 218.796 C 356.458 217.450,357.142 218.465,356.511 220.110 M369.356 220.515 C 369.036 221.348,365.154 223.823,360.729 226.015 C 354.449 229.125,351.537 230.000,347.463 230.000 C 344.593 230.000,340.629 230.675,338.654 231.500 C 333.364 233.710,332.800 233.354,336.204 229.950 C 339.696 226.458,343.807 225.291,346.860 226.925 C 348.576 227.843,349.846 227.594,353.732 225.577 C 356.355 224.216,359.850 222.182,361.500 221.058 C 365.136 218.580,370.234 218.228,369.356 220.515 M214.750 224.245 C 217.184 226.192,215.925 226.827,209.536 226.876 C 202.615 226.929,200.705 225.964,204.284 224.224 C 209.009 221.926,211.859 221.932,214.750 224.245 M240.816 225.785 C 240.990 227.591,240.402 232.541,239.510 236.785 C 238.618 241.028,237.003 249.675,235.921 256.000 C 233.641 269.325,231.693 280.218,229.573 291.500 C 227.337 303.401,227.438 304.046,232.250 308.645 C 239.702 315.767,252.925 325.940,255.760 326.733 C 260.037 327.930,278.238 327.608,280.565 326.294 C 281.700 325.653,286.650 321.671,291.565 317.446 C 301.559 308.852,304.817 306.484,305.586 307.252 C 306.021 307.687,313.056 334.221,314.732 341.750 C 315.360 344.568,315.521 344.571,299.542 341.495 C 283.805 338.465,282.445 338.442,276.333 341.108 C 267.308 345.045,266.608 345.082,260.302 341.947 C 253.160 338.397,251.538 338.371,234.403 341.536 C 226.440 343.007,220.300 343.700,219.787 343.187 C 219.274 342.674,220.200 336.253,221.992 327.901 C 226.285 307.889,226.222 308.276,225.506 306.020 C 225.047 304.574,215.426 299.262,191.885 287.457 C 173.747 278.362,158.639 270.223,158.312 269.371 C 157.985 268.520,159.637 261.450,161.983 253.661 C 164.328 245.873,166.570 238.375,166.964 237.000 C 167.607 234.755,168.180 234.508,172.590 234.578 C 175.290 234.621,184.250 235.584,192.500 236.719 C 209.913 239.114,207.599 239.706,224.500 228.543 C 232.139 223.498,235.208 222.005,237.500 222.219 C 240.091 222.462,240.543 222.948,240.816 225.785 M297.000 223.343 C 298.925 224.033,304.100 227.106,308.500 230.173 C 321.966 239.557,319.893 239.136,340.915 236.765 C 362.529 234.328,359.757 232.755,365.128 250.500 C 370.678 268.835,370.657 268.635,367.337 271.633 C 363.573 275.032,309.204 303.186,307.163 302.793 C 305.244 302.423,305.840 304.753,296.411 260.795 C 292.198 241.157,289.018 224.395,289.344 223.545 C 290.052 221.702,292.262 221.644,297.000 223.343 M398.391 228.080 C 397.510 231.061,395.544 236.018,394.022 239.096 L 391.255 244.692 393.620 243.596 C 395.102 242.909,395.987 241.638,395.992 240.191 C 395.997 238.908,396.444 238.157,397.000 238.500 C 397.550 238.840,398.000 240.184,398.000 241.487 C 398.000 243.820,389.780 285.722,388.203 291.431 L 387.393 294.361 385.197 291.276 C 382.609 287.642,382.226 280.888,384.500 279.000 C 385.768 277.947,386.000 278.160,386.000 280.378 C 386.000 281.820,386.397 283.000,386.881 283.000 C 388.259 283.000,390.152 274.311,390.742 265.281 C 391.270 257.181,391.245 257.068,389.037 257.493 C 387.804 257.730,386.197 258.422,385.464 259.030 C 383.525 260.639,378.000 271.591,378.000 273.826 C 378.000 274.875,377.158 277.931,376.128 280.617 C 371.961 291.486,365.146 319.479,366.368 320.702 C 366.727 321.061,368.330 320.100,369.930 318.567 C 371.530 317.034,373.350 315.950,373.974 316.158 C 375.196 316.565,373.741 318.202,368.306 322.536 C 366.326 324.116,364.315 327.215,363.013 330.696 C 359.940 338.909,360.566 339.783,366.497 335.559 C 372.635 331.187,373.997 331.026,370.589 335.077 C 367.444 338.814,367.286 341.548,370.127 343.068 C 371.773 343.949,372.437 343.911,373.061 342.901 C 373.505 342.183,373.603 341.167,373.280 340.643 C 372.956 340.119,373.218 340.016,373.861 340.414 C 374.718 340.944,374.559 341.947,373.266 344.161 C 371.537 347.121,371.378 347.170,365.682 346.535 C 362.483 346.178,359.275 345.659,358.555 345.383 C 356.923 344.756,354.000 356.890,354.000 364.289 C 354.000 367.064,353.690 369.024,353.312 368.646 C 352.599 367.932,347.000 376.227,347.000 377.997 C 347.000 378.549,346.045 379.955,344.877 381.123 C 343.709 382.291,342.154 385.521,341.420 388.302 C 340.203 392.917,336.724 398.058,335.588 396.921 C 334.880 396.213,340.044 381.880,342.040 379.013 C 343.002 377.631,345.001 373.125,346.482 369.000 C 347.964 364.875,350.692 357.450,352.546 352.500 C 354.400 347.550,356.664 339.450,357.578 334.500 C 361.217 314.785,370.211 277.053,373.053 269.579 C 374.710 265.223,378.188 257.796,380.783 253.076 C 383.377 248.356,387.300 240.994,389.500 236.715 C 393.315 229.295,398.799 221.466,399.612 222.278 C 399.822 222.488,399.272 225.099,398.391 228.080 M132.854 232.890 C 135.253 237.415,136.881 241.428,136.471 241.809 C 136.061 242.189,135.532 241.959,135.296 241.298 C 135.059 240.637,133.790 238.612,132.475 236.798 C 127.423 229.827,124.699 223.400,127.141 224.214 C 127.884 224.461,130.455 228.366,132.854 232.890 M232.874 238.249 C 233.195 242.769,233.376 243.157,234.170 241.039 C 235.272 238.097,234.897 233.785,233.500 233.326 C 232.888 233.126,232.645 235.036,232.874 238.249 M379.000 237.892 C 379.000 239.056,378.074 240.015,376.593 240.387 C 375.269 240.720,373.469 241.267,372.593 241.603 C 369.376 242.837,371.116 239.987,374.750 238.068 C 376.813 236.979,378.613 236.069,378.750 236.044 C 378.887 236.020,379.000 236.851,379.000 237.892 M320.304 239.683 C 321.014 240.832,314.111 273.633,310.566 285.958 C 306.160 301.271,307.678 305.205,312.993 292.250 C 314.742 287.988,318.466 279.550,321.269 273.500 C 326.731 261.712,326.997 259.962,324.994 249.000 C 323.646 241.623,322.914 239.805,321.039 239.180 C 320.315 238.938,319.984 239.164,320.304 239.683 M207.453 240.595 C 206.877 240.835,206.574 242.487,206.780 244.266 C 206.987 246.045,206.317 249.750,205.292 252.500 C 203.567 257.126,203.206 257.474,200.464 257.148 C 198.834 256.954,197.187 256.292,196.804 255.677 C 195.752 253.984,196.588 253.709,198.947 254.971 C 200.893 256.013,201.013 255.901,200.432 253.583 C 200.001 251.867,200.506 249.918,202.013 247.478 C 203.232 245.507,204.024 243.691,203.775 243.442 C 203.157 242.823,190.752 249.478,184.006 254.047 C 180.978 256.098,174.787 259.631,170.250 261.899 C 155.654 269.194,159.752 269.810,184.513 264.044 L 201.500 260.089 203.700 262.294 C 204.910 263.507,209.573 271.700,214.063 280.500 C 218.553 289.300,222.851 297.159,223.613 297.964 C 226.089 300.578,225.288 295.282,221.577 284.500 C 217.977 274.042,210.000 244.521,210.000 241.658 C 210.000 240.004,209.435 239.768,207.453 240.595 M217.519 242.624 C 216.438 243.705,216.080 245.208,216.448 247.124 C 216.751 248.706,217.254 251.319,217.564 252.931 C 218.293 256.717,220.781 258.972,222.019 256.969 C 222.516 256.165,222.494 255.095,221.967 254.460 C 221.396 253.772,221.478 252.922,222.181 252.219 C 223.027 251.373,222.966 250.664,221.942 249.431 C 221.187 248.521,220.701 246.252,220.861 244.388 C 221.180 240.693,220.048 240.095,217.519 242.624 M148.138 257.299 C 150.331 261.038,152.741 266.143,153.493 268.644 C 154.246 271.144,155.547 273.947,156.385 274.872 C 158.146 276.819,161.560 289.810,166.434 313.114 C 168.320 322.132,170.352 330.858,170.948 332.505 L 172.033 335.500 169.952 333.000 C 167.368 329.896,164.929 324.600,163.964 320.000 C 163.560 318.075,162.015 312.225,160.529 307.000 C 159.044 301.775,156.766 291.875,155.468 285.000 C 153.174 272.849,150.532 265.596,146.908 261.500 C 145.934 260.400,144.009 256.350,142.628 252.500 C 140.348 246.141,140.302 245.729,142.134 248.000 C 143.243 249.375,145.944 253.560,148.138 257.299 M331.236 250.000 C 333.350 253.960,336.983 255.455,338.506 252.991 C 340.240 250.185,335.748 246.000,331.003 246.000 C 329.172 246.000,329.181 246.150,331.236 250.000 M129.406 255.002 C 131.383 257.754,133.000 260.590,133.000 261.306 C 133.000 263.308,139.140 268.648,142.500 269.567 L 145.500 270.389 142.583 270.777 C 140.266 271.085,139.013 270.452,136.492 267.700 C 134.746 265.795,132.459 263.962,131.409 263.628 C 129.773 263.108,127.814 260.057,123.780 251.750 C 123.172 250.500,123.341 250.000,124.371 250.000 C 125.164 250.000,127.430 252.251,129.406 255.002 M231.690 251.750 C 231.455 252.162,230.949 254.300,230.566 256.500 C 230.183 258.700,228.999 263.360,227.935 266.855 C 226.871 270.351,226.030 275.301,226.068 277.855 C 226.165 284.505,227.357 281.031,229.966 266.500 C 231.151 259.900,232.276 253.713,232.467 252.750 C 232.825 250.939,232.437 250.440,231.690 251.750 M343.000 256.500 C 343.930 258.946,343.849 259.000,339.275 259.000 C 333.117 259.000,334.886 261.024,341.663 261.731 C 344.323 262.009,349.073 263.083,352.218 264.118 C 355.364 265.153,358.964 265.985,360.218 265.967 L 362.500 265.933 360.139 263.967 C 358.841 262.885,356.782 262.000,355.564 262.000 C 354.345 262.000,352.258 260.832,350.924 259.405 C 348.766 257.095,343.985 254.000,342.574 254.000 C 342.286 254.000,342.477 255.125,343.000 256.500 M273.745 269.118 C 273.971 276.836,273.868 277.342,272.452 275.500 C 271.422 274.162,270.979 271.672,271.113 267.976 C 271.222 264.937,270.722 261.348,270.000 260.000 C 268.699 257.570,268.709 257.563,271.094 259.143 C 273.278 260.589,273.523 261.511,273.745 269.118 M308.479 267.632 C 308.140 269.209,307.443 271.534,306.931 272.797 C 305.686 275.870,305.690 282.038,306.936 280.069 C 308.150 278.150,310.394 266.061,309.670 265.337 C 309.355 265.022,308.819 266.055,308.479 267.632 M386.565 268.598 C 386.098 270.457,385.568 270.968,384.852 270.252 C 384.136 269.536,384.178 268.536,384.988 267.022 C 386.501 264.195,387.435 265.129,386.565 268.598 M198.015 268.191 C 198.024 268.911,198.467 270.175,199.000 271.000 C 199.788 272.219,199.972 272.090,199.985 270.309 C 199.993 269.104,199.550 267.840,199.000 267.500 C 198.450 267.160,198.007 267.471,198.015 268.191 M348.000 270.000 C 348.000 270.550,349.323 271.000,350.941 271.000 C 352.559 271.000,354.160 270.550,354.500 270.000 C 354.868 269.405,353.677 269.000,351.559 269.000 C 349.602 269.000,348.000 269.450,348.000 270.000 M189.384 275.001 C 189.763 277.371,190.315 279.701,190.611 280.180 C 191.106 280.981,204.379 288.000,205.398 288.000 C 205.645 288.000,205.165 286.633,204.332 284.963 C 202.808 281.909,198.979 278.718,197.366 279.159 C 194.977 279.813,191.875 277.623,191.330 274.899 C 190.352 270.010,188.601 270.103,189.384 275.001 M179.106 300.000 C 181.405 304.675,184.097 309.661,185.090 311.080 C 186.082 312.499,189.085 317.925,191.764 323.139 L 196.634 332.618 199.067 329.246 C 205.537 320.279,210.532 314.689,214.072 312.454 C 218.375 309.738,219.000 309.550,219.000 310.969 C 219.000 312.076,200.372 333.065,198.264 334.334 C 195.984 335.706,194.263 334.377,191.751 329.307 C 190.442 326.663,185.844 318.425,181.533 311.000 C 174.140 298.265,167.000 284.679,167.000 283.345 C 167.000 281.092,175.683 293.038,179.106 300.000 M139.506 290.993 C 136.846 293.770,134.000 294.961,134.000 293.298 C 134.000 292.911,135.439 291.110,137.198 289.296 C 139.320 287.106,140.731 286.331,141.391 286.991 C 142.052 287.652,141.418 288.998,139.506 290.993 M245.087 291.000 C 242.000 293.639,236.000 296.570,236.000 295.439 C 236.000 294.731,246.373 288.103,247.500 288.091 C 248.050 288.086,246.964 289.395,245.087 291.000 M281.393 292.582 C 281.727 293.452,282.000 297.513,282.000 301.607 L 282.000 309.051 285.250 307.398 L 288.500 305.746 286.076 308.373 C 284.742 309.818,283.092 311.000,282.409 311.000 C 281.726 311.000,280.968 311.563,280.724 312.250 C 280.046 314.166,278.012 306.029,278.006 301.375 C 277.995 293.310,279.837 288.527,281.393 292.582 M262.146 300.096 C 262.004 306.426,259.050 317.450,257.825 316.225 C 257.317 315.717,257.585 312.415,258.458 308.422 C 259.291 304.615,260.232 299.767,260.550 297.648 C 261.344 292.362,262.288 293.810,262.146 300.096 M383.738 307.126 C 383.995 309.083,383.288 310.421,380.965 312.376 C 377.125 315.607,376.529 315.620,373.455 312.545 C 370.482 309.573,370.296 308.003,373.000 308.710 C 374.391 309.074,375.000 308.741,375.000 307.617 C 375.000 306.727,374.525 306.000,373.943 306.000 C 372.867 306.000,375.280 300.977,377.921 297.720 C 379.257 296.072,379.512 296.256,381.379 300.220 C 382.487 302.574,383.549 305.682,383.738 307.126 M330.776 333.775 L 334.282 338.051 333.443 348.275 C 332.354 361.532,332.323 365.866,333.294 369.348 C 333.883 371.463,333.761 372.087,332.820 371.773 C 331.068 371.189,320.243 353.181,319.431 349.500 C 319.067 347.850,318.259 345.825,317.635 345.000 C 316.655 343.705,316.733 343.683,318.206 344.836 C 319.145 345.571,320.495 345.836,321.206 345.426 C 321.918 345.015,322.178 345.036,321.783 345.473 C 321.042 346.294,326.780 355.000,328.063 355.000 C 329.281 355.000,330.022 352.026,330.589 344.858 C 330.920 340.674,330.749 338.000,330.151 338.000 C 329.612 338.000,327.472 335.637,325.395 332.750 C 323.319 329.863,320.131 326.089,318.310 324.365 C 316.490 322.641,315.000 320.298,315.000 319.158 C 315.000 317.511,316.259 318.360,321.134 323.293 C 324.508 326.707,328.847 331.424,330.776 333.775 M380.310 323.250 C 379.958 325.038,379.087 327.850,378.374 329.500 L 377.078 332.500 377.039 328.715 C 377.007 325.570,379.276 320.000,380.590 320.000 C 380.788 320.000,380.662 321.462,380.310 323.250 M151.447 328.750 C 155.402 333.457,154.122 332.736,148.958 327.348 C 146.506 324.790,145.449 323.327,146.608 324.098 C 147.768 324.869,149.945 326.962,151.447 328.750 M164.750 338.801 C 167.637 341.244,170.000 343.567,170.000 343.962 C 170.000 344.951,160.236 346.983,156.250 346.825 C 151.693 346.644,152.207 345.482,157.500 344.000 C 159.975 343.307,162.000 342.279,162.000 341.714 C 162.000 341.150,160.875 339.214,159.500 337.411 C 154.890 331.368,156.455 331.782,164.750 338.801 M321.000 336.000 C 322.268 337.100,324.111 338.000,325.094 338.000 C 326.077 338.000,327.160 338.450,327.500 339.000 C 327.840 339.550,327.162 340.000,325.993 340.000 C 324.825 340.000,322.998 340.466,321.934 341.035 C 320.307 341.906,320.000 341.737,320.000 339.969 C 320.000 338.814,319.534 336.998,318.965 335.934 C 317.652 333.481,318.112 333.496,321.000 336.000 M206.851 337.098 C 208.583 337.702,210.000 338.658,210.000 339.223 C 210.000 340.592,204.486 339.454,201.714 337.512 C 199.569 336.010,199.568 336.000,201.628 336.000 C 202.769 336.000,205.119 336.494,206.851 337.098 M146.027 345.250 C 147.961 349.510,148.682 356.000,147.221 356.000 C 146.556 356.000,142.967 343.912,142.992 341.750 C 143.012 339.908,144.250 341.336,146.027 345.250 M194.902 348.149 C 196.191 351.847,196.392 365.360,195.147 364.591 C 194.677 364.301,194.019 360.787,193.683 356.782 C 193.346 352.777,192.778 348.488,192.419 347.250 C 191.407 343.758,193.655 344.573,194.902 348.149 M180.000 349.989 C 180.000 350.468,181.299 353.704,182.887 357.180 C 184.476 360.656,186.114 364.625,186.529 366.000 C 186.944 367.375,189.019 371.875,191.140 376.000 C 195.531 384.542,196.138 387.340,192.977 384.479 C 191.864 383.472,190.246 380.215,189.382 377.242 C 188.517 374.268,186.329 368.835,184.519 365.168 C 178.458 352.887,176.491 346.950,179.000 348.500 C 179.550 348.840,180.000 349.510,180.000 349.989 M258.671 358.110 L 267.500 360.220 276.312 357.961 L 285.124 355.702 287.800 357.700 C 289.272 358.799,291.693 361.769,293.180 364.300 C 296.368 369.726,297.541 369.018,280.404 372.006 C 269.039 373.988,267.770 374.026,259.404 372.640 C 254.507 371.828,248.250 370.862,245.500 370.492 C 242.750 370.123,235.843 367.836,230.152 365.410 C 224.460 362.985,218.956 361.000,217.921 361.000 C 216.073 361.000,214.273 364.947,214.838 367.757 C 215.126 369.191,210.454 371.253,208.079 370.740 C 207.000 370.507,207.528 369.853,209.747 368.676 C 211.623 367.680,213.600 365.500,214.431 363.512 C 215.345 361.324,216.712 359.905,218.184 359.615 C 224.812 358.310,237.748 356.804,239.476 357.137 C 241.164 357.463,240.946 357.841,237.976 359.742 C 236.064 360.965,235.048 361.974,235.719 361.983 C 236.389 361.992,236.691 362.640,236.391 363.423 C 236.078 364.240,236.736 365.324,237.937 365.966 C 239.087 366.582,239.910 366.729,239.764 366.293 C 239.619 365.857,240.850 363.363,242.500 360.752 C 246.004 355.206,246.310 355.156,258.671 358.110 M303.321 357.594 C 310.091 359.901,310.499 361.457,304.111 360.609 C 298.171 359.821,293.818 358.104,294.590 356.854 C 295.376 355.582,298.094 355.813,303.321 357.594 M322.176 367.848 C 324.872 370.272,326.870 372.464,326.615 372.718 C 326.361 372.973,322.631 371.612,318.326 369.694 C 314.022 367.777,309.488 365.906,308.250 365.536 C 304.057 364.286,305.971 362.968,311.637 363.205 C 316.745 363.419,317.735 363.855,322.176 367.848 M370.562 371.750 C 369.837 375.864,359.863 391.468,356.969 393.017 C 355.972 393.550,354.558 394.554,353.828 395.246 C 353.098 395.939,348.728 399.654,344.118 403.503 C 335.880 410.381,329.000 418.115,329.000 420.499 C 329.000 421.876,322.018 428.490,310.523 438.000 C 300.202 446.539,298.424 447.808,299.421 445.923 C 299.835 445.140,299.325 445.539,298.288 446.809 L 296.402 449.119 295.067 446.625 C 294.333 445.254,293.989 443.150,294.303 441.951 L 294.873 439.771 292.481 442.018 C 291.165 443.254,290.181 444.712,290.294 445.258 C 290.407 445.803,289.875 446.477,289.111 446.755 C 288.347 447.032,287.989 446.826,288.317 446.296 C 289.084 445.054,290.607 445.130,260.734 444.920 L 234.968 444.739 227.158 440.899 C 222.862 438.786,217.357 435.347,214.924 433.256 C 212.491 431.165,208.849 428.232,206.832 426.739 C 204.629 425.108,202.904 422.841,202.514 421.062 C 201.473 416.323,190.148 405.985,179.635 400.178 C 174.580 397.386,169.331 393.854,167.972 392.331 C 166.612 390.807,166.203 390.094,167.061 390.746 C 167.920 391.398,175.014 394.185,182.827 396.939 C 190.639 399.693,197.922 402.423,199.012 403.006 C 201.272 404.216,203.967 409.180,206.396 416.606 C 207.314 419.415,209.063 422.626,210.283 423.741 C 211.502 424.857,218.395 428.959,225.601 432.858 L 238.702 439.946 265.693 440.031 L 292.684 440.116 300.092 436.215 C 304.166 434.069,310.425 430.555,314.000 428.406 C 320.315 424.611,320.656 424.190,326.000 413.592 C 332.065 401.564,329.946 403.366,347.000 395.734 C 350.575 394.134,354.500 392.345,355.722 391.759 C 357.128 391.084,359.817 386.808,363.051 380.106 C 367.482 370.921,369.317 368.081,370.861 368.015 C 371.060 368.007,370.925 369.688,370.562 371.750 M214.829 383.789 L 225.500 390.500 266.665 390.500 C 301.210 390.500,307.649 390.718,306.704 391.857 C 306.085 392.603,305.111 394.044,304.539 395.059 C 301.166 401.052,294.496 411.757,293.204 413.250 C 291.839 414.828,289.274 415.000,267.068 415.000 C 239.618 415.000,239.246 414.918,236.451 408.228 C 235.615 406.227,233.178 402.269,231.036 399.432 C 227.831 395.187,226.288 394.043,222.321 392.976 C 219.669 392.262,216.825 391.794,216.000 391.934 C 215.175 392.075,214.822 391.863,215.216 391.462 C 215.977 390.689,212.629 387.752,209.823 386.730 C 207.784 385.987,205.556 388.401,206.357 390.487 C 207.195 392.672,211.996 392.471,212.015 390.250 C 212.028 388.768,212.175 388.728,212.972 389.988 C 213.660 391.077,213.352 391.777,211.821 392.596 C 209.815 393.669,209.847 393.738,212.604 394.265 C 214.185 394.567,216.187 394.435,217.053 393.972 C 219.195 392.825,223.407 395.050,223.780 397.525 C 224.571 402.770,225.275 403.884,229.479 406.541 C 233.591 409.140,235.185 411.020,233.250 410.988 C 231.976 410.966,215.727 406.192,211.500 404.597 C 209.300 403.767,206.723 403.068,205.773 403.044 C 202.280 402.955,200.657 398.352,200.064 386.845 L 199.500 375.907 201.829 376.493 C 203.110 376.815,208.960 380.098,214.829 383.789 M354.064 383.336 C 353.312 384.088,353.026 383.095,353.090 379.950 L 353.180 375.500 354.154 378.886 C 354.817 381.191,354.788 382.612,354.064 383.336 M304.290 379.000 C 304.577 380.100,304.457 381.000,304.023 381.000 C 303.589 381.000,302.998 380.100,302.710 379.000 C 302.423 377.900,302.543 377.000,302.977 377.000 C 303.411 377.000,304.002 377.900,304.290 379.000 M324.540 383.500 C 319.297 385.921,314.107 390.849,313.505 393.976 C 312.870 397.273,312.000 397.762,312.000 394.822 C 312.000 393.440,312.882 391.512,313.960 390.536 C 315.038 389.560,315.843 388.478,315.748 388.131 C 314.831 384.782,325.095 378.132,327.656 380.417 C 328.570 381.232,327.801 381.994,324.540 383.500 M346.396 385.590 C 347.129 387.501,346.230 389.260,344.931 388.457 C 343.741 387.722,343.710 384.000,344.893 384.000 C 345.384 384.000,346.061 384.716,346.396 385.590 M212.250 396.732 C 209.912 396.943,208.000 397.533,208.000 398.044 C 208.000 399.063,214.028 401.829,218.025 402.645 C 220.206 403.090,220.582 402.783,220.780 400.392 C 221.001 397.712,219.557 395.862,217.500 396.190 C 216.950 396.278,214.588 396.522,212.250 396.732 M241.029 396.961 C 238.519 398.548,240.654 399.235,245.179 398.295 C 247.556 397.801,251.497 397.749,253.937 398.178 C 258.661 399.010,260.387 398.489,257.971 396.961 C 257.162 396.449,253.350 396.031,249.500 396.031 C 245.650 396.031,241.838 396.449,241.029 396.961 M249.500 401.945 C 246.758 403.243,246.129 403.861,247.500 403.912 C 248.600 403.953,250.850 403.093,252.500 402.000 C 256.282 399.496,254.736 399.467,249.500 401.945 M264.537 402.584 C 262.971 404.973,262.953 405.382,264.350 406.779 C 265.748 408.176,265.843 408.116,265.331 406.158 C 265.019 404.965,265.331 403.306,266.024 402.471 C 266.718 401.635,267.057 400.723,266.778 400.445 C 266.499 400.166,265.491 401.129,264.537 402.584 M323.000 407.845 C 323.000 409.461,319.474 411.811,315.113 413.101 C 311.156 414.271,310.936 414.492,312.863 415.352 C 314.038 415.877,315.000 416.713,315.000 417.212 C 315.000 417.710,315.445 417.843,315.989 417.507 C 316.555 417.157,316.723 417.558,316.382 418.448 C 315.670 420.302,315.547 420.309,308.799 418.871 C 302.395 417.507,299.215 415.625,301.163 414.354 C 302.887 413.230,320.141 407.105,321.750 407.046 C 322.438 407.021,323.000 407.380,323.000 407.845 M230.231 416.500 C 229.909 417.696,227.304 418.447,220.250 419.377 C 215.922 419.947,215.000 419.803,215.000 418.553 C 215.000 417.720,216.012 416.822,217.250 416.558 C 218.488 416.294,220.400 415.877,221.500 415.632 C 224.872 414.880,230.516 415.442,230.231 416.500 M296.813 424.411 C 297.076 430.306,296.003 433.432,294.533 431.054 C 292.841 428.316,294.306 418.000,296.387 418.000 C 296.464 418.000,296.656 420.885,296.813 424.411 M270.893 447.548 C 277.788 447.753,284.091 447.486,285.101 446.946 C 286.485 446.205,287.147 446.406,287.888 447.791 C 289.680 451.139,286.150 452.002,270.764 451.976 C 254.962 451.950,250.593 451.260,245.767 448.033 L 242.500 445.847 250.500 446.513 C 254.900 446.879,264.077 447.345,270.893 447.548 " stroke="none" fill="undefined" fill-rule="evenodd"/></svg>