<svg width="844.238" height="73.633" viewBox="0 0 844.238 73.633" xmlns="http://www.w3.org/2000/svg"><g id="svgGroup" stroke-linecap="round" fill-rule="evenodd" font-size="9pt" stroke="#000" stroke-width="0.25mm" fill="black" style="stroke:#000;stroke-width:0.25mm;fill:black"><path d="M 167.188 1.27 L 192.188 73.145 L 180.078 73.145 L 161.426 19.238 L 142.578 73.145 L 130.371 73.145 L 155.566 1.27 L 167.188 1.27 Z M 247.461 50.781 L 247.461 1.172 L 259.375 1.172 L 259.375 73.145 L 247.461 73.145 L 223.242 30.566 L 223.242 8.105 L 247.461 50.781 Z M 497.168 50.781 L 497.168 1.172 L 509.082 1.172 L 509.082 73.145 L 497.168 73.145 L 472.949 30.566 L 472.949 8.105 L 497.168 50.781 Z M 703.613 50.781 L 703.613 1.172 L 715.527 1.172 L 715.527 73.145 L 703.613 73.145 L 679.395 30.566 L 679.395 8.105 L 703.613 50.781 Z M 0 1.172 L 54.785 1.172 L 54.785 9.18 L 33.301 9.18 L 33.301 73.145 L 21.484 73.145 L 21.484 9.18 L 0 9.18 L 0 1.172 Z M 543.066 1.172 L 549.023 1.172 Q 558.105 1.172 564.99 4.053 A 36.152 36.152 0 0 1 571.994 7.896 A 30.085 30.085 0 0 1 576.416 11.719 A 31.452 31.452 0 0 1 583.203 22.607 A 36.062 36.062 0 0 1 585.449 35.156 A 70.255 70.255 0 0 1 585.181 41.457 Q 584.735 46.405 583.545 50.342 A 46.564 46.564 0 0 1 581.682 55.461 Q 580.359 58.499 578.711 60.889 A 28.074 28.074 0 0 1 575.495 64.789 A 22.027 22.027 0 0 1 572.119 67.578 Q 568.457 70.02 565.039 71.24 A 35.774 35.774 0 0 1 562.16 72.14 Q 560.382 72.61 558.789 72.803 A 80.978 80.978 0 0 1 557.465 72.952 Q 556.134 73.091 555.229 73.129 A 15.039 15.039 0 0 1 554.59 73.145 L 543.066 73.145 L 543.066 64.551 L 550.684 64.551 Q 559.26 64.551 564.395 60.604 A 16.28 16.28 0 0 0 567.871 56.934 A 25.625 25.625 0 0 0 571.186 49.94 Q 572.227 46.609 572.714 42.562 A 64.511 64.511 0 0 0 573.145 34.863 A 37.294 37.294 0 0 0 572.07 25.977 A 18.928 18.928 0 0 0 567.92 18.018 Q 564.844 14.453 559.57 12.256 A 25.155 25.155 0 0 0 554.974 10.875 Q 551.016 10.059 545.898 10.059 L 543.066 10.059 L 543.066 1.172 Z M 100.977 44.824 L 117.383 73.145 L 104.98 73.145 L 91.406 47.07 Q 91.113 47.07 90.771 47.119 A 3.6 3.6 0 0 1 90.552 47.143 Q 90.237 47.168 89.746 47.168 L 87.744 47.168 L 84.277 47.168 L 84.277 38.574 L 90.918 38.574 A 13.206 13.206 0 0 0 95.081 37.887 A 14.793 14.793 0 0 0 95.215 37.842 A 10.588 10.588 0 0 0 98.9 35.653 A 12.238 12.238 0 0 0 99.121 35.449 A 9.557 9.557 0 0 0 100.686 33.496 Q 101.408 32.323 101.953 30.811 Q 103.027 27.832 103.027 23.438 A 15.437 15.437 0 0 0 102.934 21.797 Q 102.844 20.956 102.667 20.02 A 28.436 28.436 0 0 0 102.539 19.385 A 11.252 11.252 0 0 0 101.11 15.851 A 13.474 13.474 0 0 0 100.537 14.99 A 10.676 10.676 0 0 0 98.186 12.646 A 14.168 14.168 0 0 0 96.289 11.475 Q 94.214 10.4 91.127 10.141 A 24.71 24.71 0 0 0 89.062 10.059 L 84.277 10.059 L 84.277 1.172 L 89.258 1.172 Q 93.848 1.172 98.34 2.637 A 24.554 24.554 0 0 1 106.396 7.031 A 22.983 22.983 0 0 1 112.158 14.111 A 19.036 19.036 0 0 1 114.278 21.533 A 23.115 23.115 0 0 1 114.355 23.437 A 28.114 28.114 0 0 1 113.664 29.825 A 21.05 21.05 0 0 1 110.742 36.719 A 21.663 21.663 0 0 1 100.977 44.824 Z M 356.543 0.098 L 356.543 9.863 A 16.357 16.357 0 0 0 350.488 12.061 A 14.638 14.638 0 0 0 347.14 14.871 A 18.946 18.946 0 0 0 345.508 16.992 A 20.803 20.803 0 0 0 343.698 20.389 Q 342.972 22.092 342.413 24.102 A 37.608 37.608 0 0 0 342.139 25.146 Q 341.09 29.385 340.87 34.957 A 74.708 74.708 0 0 0 340.82 36.816 A 68.095 68.095 0 0 0 341.085 42.048 Q 341.311 44.515 341.724 46.656 A 35.446 35.446 0 0 0 342.139 48.535 Q 343.359 53.418 345.508 56.738 A 18.172 18.172 0 0 0 347.839 59.668 A 14.221 14.221 0 0 0 350.537 61.816 A 15.416 15.416 0 0 0 354.996 63.684 A 14.255 14.255 0 0 0 356.543 63.965 L 356.543 73.535 A 28.501 28.501 0 0 1 346.909 71.242 A 27.077 27.077 0 0 1 345.557 70.605 A 26.556 26.556 0 0 1 336.816 63.477 A 30.488 30.488 0 0 1 332.978 57.286 A 39.934 39.934 0 0 1 331.006 52.197 A 44.071 44.071 0 0 1 329.383 44.646 Q 328.914 41.016 328.906 36.946 A 71.782 71.782 0 0 1 328.906 36.816 A 61.176 61.176 0 0 1 329.352 29.24 Q 329.841 25.325 330.867 21.934 A 37.386 37.386 0 0 1 331.006 21.484 A 38.701 38.701 0 0 1 333.508 15.356 A 30.039 30.039 0 0 1 336.816 10.254 Q 340.527 5.664 345.557 3.125 A 29.327 29.327 0 0 1 355.987 0.148 A 33.413 33.413 0 0 1 356.543 0.098 Z M 759.766 0.098 L 759.766 9.863 A 16.357 16.357 0 0 0 753.711 12.061 A 14.638 14.638 0 0 0 750.363 14.871 A 18.946 18.946 0 0 0 748.73 16.992 A 20.803 20.803 0 0 0 746.92 20.389 Q 746.195 22.092 745.636 24.102 A 37.608 37.608 0 0 0 745.361 25.146 Q 744.312 29.385 744.093 34.957 A 74.708 74.708 0 0 0 744.043 36.816 A 68.095 68.095 0 0 0 744.308 42.048 Q 744.534 44.515 744.947 46.656 A 35.446 35.446 0 0 0 745.361 48.535 Q 746.582 53.418 748.73 56.738 A 18.172 18.172 0 0 0 751.062 59.668 A 14.221 14.221 0 0 0 753.76 61.816 A 15.416 15.416 0 0 0 758.218 63.684 A 14.255 14.255 0 0 0 759.766 63.965 L 759.766 73.535 A 28.501 28.501 0 0 1 750.132 71.242 A 27.077 27.077 0 0 1 748.779 70.605 A 26.556 26.556 0 0 1 740.039 63.477 A 30.488 30.488 0 0 1 736.2 57.286 A 39.934 39.934 0 0 1 734.229 52.197 A 44.071 44.071 0 0 1 732.606 44.646 Q 732.136 41.016 732.129 36.946 A 71.782 71.782 0 0 1 732.129 36.816 A 61.176 61.176 0 0 1 732.575 29.24 Q 733.064 25.325 734.089 21.934 A 37.386 37.386 0 0 1 734.229 21.484 A 38.701 38.701 0 0 1 736.731 15.356 A 30.039 30.039 0 0 1 740.039 10.254 Q 743.75 5.664 748.779 3.125 A 29.327 29.327 0 0 1 759.209 0.148 A 33.413 33.413 0 0 1 759.766 0.098 Z M 219.238 73.145 L 207.324 73.145 L 207.324 1.172 L 219.238 1.172 L 219.238 73.145 Z M 395.996 73.145 L 395.996 1.172 L 407.91 1.172 L 407.91 73.145 L 395.996 73.145 Z M 468.945 73.145 L 457.031 73.145 L 457.031 1.172 L 468.945 1.172 L 468.945 73.145 Z M 602.441 73.145 L 602.441 1.172 L 614.355 1.172 L 614.355 73.145 L 602.441 73.145 Z M 675.391 73.145 L 663.477 73.145 L 663.477 1.172 L 675.391 1.172 L 675.391 73.145 Z M 799.219 73.145 L 799.219 1.172 L 811.133 1.172 L 811.133 73.145 L 799.219 73.145 Z M 68.555 73.145 L 68.555 1.172 L 80.273 1.172 L 80.273 73.145 L 68.555 73.145 Z M 527.344 73.145 L 527.344 1.172 L 539.063 1.172 L 539.063 73.145 L 527.344 73.145 Z M 299.023 43.359 L 299.023 31.934 A 232.626 232.626 0 0 1 305.195 34.852 A 254.083 254.083 0 0 1 305.615 35.059 Q 308.984 36.719 311.719 39.111 A 19.378 19.378 0 0 1 316.1 44.709 A 21.97 21.97 0 0 1 316.211 44.922 A 14.888 14.888 0 0 1 317.501 48.623 Q 317.867 50.323 317.946 52.294 A 27.764 27.764 0 0 1 317.969 53.418 A 18.367 18.367 0 0 1 316.65 60.254 Q 315.332 63.574 312.939 66.26 A 20.121 20.121 0 0 1 308.541 69.933 A 23.913 23.913 0 0 1 307.031 70.801 A 22.111 22.111 0 0 1 301.752 72.748 A 27.333 27.333 0 0 1 299.023 73.242 L 299.023 63.867 A 11.995 11.995 0 0 0 302.939 62.205 Q 307.031 59.436 307.031 53.223 A 8.538 8.538 0 0 0 306.57 50.366 A 7.423 7.423 0 0 0 304.785 47.559 A 21.582 21.582 0 0 0 302.267 45.419 Q 300.809 44.351 299.023 43.359 Z M 295.02 0.293 L 295.02 10.547 A 10.816 10.816 0 0 0 289.844 14.307 A 11.279 11.279 0 0 0 288.555 16.412 A 7.838 7.838 0 0 0 287.793 19.727 A 11.529 11.529 0 0 0 288.081 22.377 A 8.018 8.018 0 0 0 289.844 25.879 Q 291.895 28.223 295.02 29.98 L 295.02 41.113 A 122.252 122.252 0 0 1 288.574 37.744 A 30.635 30.635 0 0 1 282.715 33.496 Q 280.078 31.055 278.369 27.832 A 14.194 14.194 0 0 1 276.987 23.805 Q 276.66 22.084 276.66 20.121 A 18.414 18.414 0 0 1 276.66 20.117 A 21.655 21.655 0 0 1 277.074 15.8 A 17.39 17.39 0 0 1 278.125 12.402 Q 279.59 8.984 282.08 6.396 A 18.652 18.652 0 0 1 287.939 2.295 A 25.204 25.204 0 0 1 295.02 0.293 Z M 411.914 73.145 L 411.914 64.258 L 441.016 64.258 L 441.016 73.145 L 411.914 73.145 Z M 411.914 1.172 L 441.016 1.172 L 441.016 10.059 L 411.914 10.059 L 411.914 1.172 Z M 618.359 73.145 L 618.359 64.258 L 647.461 64.258 L 647.461 73.145 L 618.359 73.145 Z M 618.359 1.172 L 647.461 1.172 L 647.461 10.059 L 618.359 10.059 L 618.359 1.172 Z M 815.137 73.145 L 815.137 64.258 L 844.238 64.258 L 844.238 73.145 L 815.137 73.145 Z M 815.137 1.172 L 844.238 1.172 L 844.238 10.059 L 815.137 10.059 L 815.137 1.172 Z M 437.988 32.715 L 437.988 40.723 L 411.914 40.723 L 411.914 32.715 L 437.988 32.715 Z M 644.434 32.715 L 644.434 40.723 L 618.359 40.723 L 618.359 32.715 L 644.434 32.715 Z M 841.211 32.715 L 841.211 40.723 L 815.137 40.723 L 815.137 32.715 L 841.211 32.715 Z M 276.172 68.359 L 278.223 59.961 A 15.125 15.125 0 0 0 279.351 60.54 Q 279.992 60.838 280.745 61.129 A 30.875 30.875 0 0 0 281.689 61.475 A 75.688 75.688 0 0 0 286.035 62.842 A 44.628 44.628 0 0 0 290.527 63.867 A 27.228 27.228 0 0 0 292.962 64.183 A 21.579 21.579 0 0 0 294.727 64.258 L 295.02 64.258 L 295.02 73.535 L 294.824 73.535 A 48.95 48.95 0 0 1 290.611 73.348 A 54.064 54.064 0 0 1 289.99 73.291 A 39.491 39.491 0 0 1 284.961 72.461 A 26.333 26.333 0 0 1 280.127 70.85 A 16.742 16.742 0 0 1 277.626 69.477 A 13.867 13.867 0 0 1 276.172 68.359 Z M 378.906 7.813 L 370.801 15.039 Q 368.555 12.5 366.016 11.23 Q 363.477 9.961 360.547 9.766 L 360.547 0.098 A 28.896 28.896 0 0 1 371.14 2.502 A 26.673 26.673 0 0 1 378.906 7.813 Z M 782.129 7.813 L 774.023 15.039 Q 771.777 12.5 769.238 11.23 Q 766.699 9.961 763.77 9.766 L 763.77 0.098 A 28.896 28.896 0 0 1 774.363 2.502 A 26.673 26.673 0 0 1 782.129 7.813 Z M 360.547 73.633 L 360.547 63.965 A 16.05 16.05 0 0 0 366.064 62.402 A 14.523 14.523 0 0 0 369.558 59.972 A 17.803 17.803 0 0 0 370.801 58.691 L 378.906 65.82 Q 375.195 69.434 370.605 71.387 A 28.655 28.655 0 0 1 362.732 73.445 A 33.724 33.724 0 0 1 360.547 73.633 Z M 763.77 73.633 L 763.77 63.965 A 16.05 16.05 0 0 0 769.287 62.402 A 14.523 14.523 0 0 0 772.78 59.972 A 17.803 17.803 0 0 0 774.023 58.691 L 782.129 65.82 Q 778.418 69.434 773.828 71.387 A 28.655 28.655 0 0 1 765.955 73.445 A 33.724 33.724 0 0 1 763.77 73.633 Z M 154.785 50.293 L 167.871 50.293 L 170.703 58.203 L 152.051 58.203 L 154.785 50.293 Z M 299.023 9.863 L 299.023 0 Q 303.32 0.098 307.764 0.928 A 27.576 27.576 0 0 1 310.856 1.681 Q 312.378 2.152 313.627 2.773 A 13.713 13.713 0 0 1 314.941 3.516 A 61.046 61.046 0 0 1 314.307 4.846 A 82.043 82.043 0 0 1 313.574 6.299 A 1879.078 1879.078 0 0 1 312.817 7.764 A 1530.309 1530.309 0 0 1 312.109 9.131 A 134.787 134.787 0 0 1 311.78 9.763 Q 311.311 10.655 310.949 11.307 A 46.756 46.756 0 0 1 310.938 11.328 Q 310.529 12.063 310.394 12.252 A 0.454 0.454 0 0 1 310.352 12.305 A 3.654 3.654 0 0 1 309.993 12.136 Q 309.811 12.039 309.607 11.91 A 9.26 9.26 0 0 1 309.18 11.621 A 4.862 4.862 0 0 0 308.64 11.291 Q 308.35 11.136 307.997 10.987 A 12.387 12.387 0 0 0 307.227 10.693 A 12.709 12.709 0 0 0 306.178 10.384 Q 305.225 10.144 304.004 9.961 A 14.731 14.731 0 0 0 302.904 9.841 Q 301.703 9.752 300.191 9.805 A 39.391 39.391 0 0 0 299.023 9.863 Z" vector-effect="non-scaling-stroke"/></g></svg>