<svg width="447.446" height="39.025" viewBox="0 0 447.446 39.025" xmlns="http://www.w3.org/2000/svg"><g id="svgGroup" stroke-linecap="round" fill-rule="evenodd" font-size="9pt" stroke="#000" stroke-width="0.25mm" fill="black" style="stroke:#000;stroke-width:0.25mm;fill:black"><path d="M 88.609 0.673 L 101.859 38.767 L 95.441 38.767 L 85.556 10.196 L 75.566 38.767 L 69.097 38.767 L 82.45 0.673 L 88.609 0.673 Z M 131.154 26.914 L 131.154 0.621 L 137.469 0.621 L 137.469 38.767 L 131.154 38.767 L 118.318 16.2 L 118.318 4.296 L 131.154 26.914 Z M 263.499 26.914 L 263.499 0.621 L 269.813 0.621 L 269.813 38.767 L 263.499 38.767 L 250.663 16.2 L 250.663 4.296 L 263.499 26.914 Z M 372.915 26.914 L 372.915 0.621 L 379.229 0.621 L 379.229 38.767 L 372.915 38.767 L 360.079 16.2 L 360.079 4.296 L 372.915 26.914 Z M 0 0.621 L 29.036 0.621 L 29.036 4.865 L 17.649 4.865 L 17.649 38.767 L 11.387 38.767 L 11.387 4.865 L 0 4.865 L 0 0.621 Z M 287.825 0.621 L 290.982 0.621 A 25.737 25.737 0 0 1 295.239 0.957 A 19.002 19.002 0 0 1 299.445 2.148 A 19.161 19.161 0 0 1 303.157 4.185 A 15.945 15.945 0 0 1 305.5 6.211 Q 307.907 8.747 309.098 11.982 A 19.113 19.113 0 0 1 310.288 18.633 Q 310.288 23.343 309.279 26.681 A 24.679 24.679 0 0 1 308.292 29.394 Q 307.7 30.753 306.986 31.867 A 14.462 14.462 0 0 1 306.717 32.271 A 14.879 14.879 0 0 1 305.012 34.338 A 11.674 11.674 0 0 1 303.223 35.816 A 20.086 20.086 0 0 1 301.315 36.949 A 15.009 15.009 0 0 1 299.471 37.757 A 18.96 18.96 0 0 1 297.945 38.234 Q 297.15 38.445 296.424 38.55 A 11.098 11.098 0 0 1 296.158 38.585 Q 294.973 38.729 294.272 38.759 A 7.971 7.971 0 0 1 293.933 38.767 L 287.825 38.767 L 287.825 34.212 L 291.862 34.212 A 15.514 15.514 0 0 0 295.301 33.856 Q 297.53 33.349 299.129 32.12 A 8.628 8.628 0 0 0 300.972 30.175 A 13.581 13.581 0 0 0 302.729 26.468 Q 303.28 24.703 303.539 22.558 A 34.191 34.191 0 0 0 303.767 18.478 Q 303.767 16.097 303.197 13.768 A 10.032 10.032 0 0 0 300.998 9.549 A 10.305 10.305 0 0 0 298.687 7.584 A 14.032 14.032 0 0 0 296.572 6.496 A 13.332 13.332 0 0 0 294.136 5.763 Q 292.039 5.331 289.326 5.331 L 287.825 5.331 L 287.825 0.621 Z M 53.518 23.757 L 62.213 38.767 L 55.64 38.767 L 48.445 24.947 Q 48.29 24.947 48.109 24.973 Q 47.958 24.995 47.682 24.998 A 8.912 8.912 0 0 1 47.565 24.999 L 46.504 24.999 L 44.667 24.999 L 44.667 20.444 L 48.187 20.444 A 6.999 6.999 0 0 0 50.393 20.08 A 7.838 7.838 0 0 0 50.464 20.056 A 5.612 5.612 0 0 0 52.417 18.896 A 6.486 6.486 0 0 0 52.534 18.788 Q 53.37 17.999 53.914 16.648 A 9.279 9.279 0 0 0 54.035 16.33 Q 54.496 15.05 54.584 13.279 A 17.375 17.375 0 0 0 54.604 12.422 A 8.181 8.181 0 0 0 54.555 11.552 Q 54.507 11.107 54.413 10.61 A 15.071 15.071 0 0 0 54.346 10.274 Q 54.087 9.058 53.285 7.945 A 5.658 5.658 0 0 0 52.039 6.702 A 7.509 7.509 0 0 0 51.033 6.082 Q 49.934 5.512 48.297 5.375 A 13.096 13.096 0 0 0 47.203 5.331 L 44.667 5.331 L 44.667 0.621 L 47.307 0.621 Q 49.739 0.621 52.12 1.397 Q 54.501 2.174 56.39 3.727 Q 58.279 5.279 59.444 7.479 A 10.089 10.089 0 0 1 60.567 11.412 A 12.251 12.251 0 0 1 60.608 12.422 Q 60.608 16.563 58.693 19.461 Q 56.778 22.359 53.518 23.757 Z M 188.968 0.052 L 188.968 5.228 Q 187.26 5.486 185.759 6.392 A 7.758 7.758 0 0 0 183.984 7.882 A 10.041 10.041 0 0 0 183.119 9.006 A 11.026 11.026 0 0 0 182.16 10.806 Q 181.775 11.709 181.479 12.774 A 19.932 19.932 0 0 0 181.333 13.328 A 21.735 21.735 0 0 0 180.881 15.798 Q 180.718 17.077 180.661 18.527 A 39.595 39.595 0 0 0 180.635 19.513 A 36.09 36.09 0 0 0 180.775 22.286 Q 180.895 23.593 181.114 24.728 A 18.786 18.786 0 0 0 181.333 25.724 Q 181.929 28.107 182.942 29.788 A 10.438 10.438 0 0 0 183.119 30.071 Q 184.258 31.831 185.785 32.763 A 8.17 8.17 0 0 0 188.148 33.753 A 7.555 7.555 0 0 0 188.968 33.901 L 188.968 38.974 A 15.106 15.106 0 0 1 183.862 37.758 A 14.351 14.351 0 0 1 183.145 37.421 A 14.075 14.075 0 0 1 178.513 33.643 A 16.159 16.159 0 0 1 176.478 30.362 A 21.165 21.165 0 0 1 175.433 27.665 A 23.358 23.358 0 0 1 174.573 23.662 Q 174.324 21.738 174.32 19.581 A 38.102 38.102 0 0 1 174.32 19.513 Q 174.32 15.061 175.359 11.625 A 19.814 19.814 0 0 1 175.433 11.387 A 20.511 20.511 0 0 1 176.759 8.139 A 15.921 15.921 0 0 1 178.513 5.435 A 14.075 14.075 0 0 1 183.145 1.656 A 15.543 15.543 0 0 1 188.673 0.078 A 17.707 17.707 0 0 1 188.968 0.052 Z M 402.676 0.052 L 402.676 5.228 Q 400.968 5.486 399.467 6.392 A 7.758 7.758 0 0 0 397.692 7.882 A 10.041 10.041 0 0 0 396.827 9.006 A 11.026 11.026 0 0 0 395.868 10.806 Q 395.483 11.709 395.187 12.774 A 19.932 19.932 0 0 0 395.042 13.328 A 21.735 21.735 0 0 0 394.589 15.798 Q 394.426 17.077 394.369 18.527 A 39.595 39.595 0 0 0 394.343 19.513 A 36.09 36.09 0 0 0 394.483 22.286 Q 394.603 23.593 394.822 24.728 A 18.786 18.786 0 0 0 395.042 25.724 Q 395.637 28.107 396.65 29.788 A 10.438 10.438 0 0 0 396.827 30.071 Q 397.966 31.831 399.493 32.763 A 8.17 8.17 0 0 0 401.856 33.753 A 7.555 7.555 0 0 0 402.676 33.901 L 402.676 38.974 A 15.106 15.106 0 0 1 397.57 37.758 A 14.351 14.351 0 0 1 396.853 37.421 A 14.075 14.075 0 0 1 392.221 33.643 A 16.159 16.159 0 0 1 390.186 30.362 A 21.165 21.165 0 0 1 389.141 27.665 A 23.358 23.358 0 0 1 388.281 23.662 Q 388.032 21.738 388.028 19.581 A 38.102 38.102 0 0 1 388.028 19.513 Q 388.028 15.061 389.067 11.625 A 19.814 19.814 0 0 1 389.141 11.387 A 20.511 20.511 0 0 1 390.467 8.139 A 15.921 15.921 0 0 1 392.221 5.435 A 14.075 14.075 0 0 1 396.853 1.656 A 15.543 15.543 0 0 1 402.381 0.078 A 17.707 17.707 0 0 1 402.676 0.052 Z M 116.196 38.767 L 109.882 38.767 L 109.882 0.621 L 116.196 0.621 L 116.196 38.767 Z M 209.878 38.767 L 209.878 0.621 L 216.192 0.621 L 216.192 38.767 L 209.878 38.767 Z M 248.541 38.767 L 242.227 38.767 L 242.227 0.621 L 248.541 0.621 L 248.541 38.767 Z M 319.294 38.767 L 319.294 0.621 L 325.608 0.621 L 325.608 38.767 L 319.294 38.767 Z M 357.957 38.767 L 351.643 38.767 L 351.643 0.621 L 357.957 0.621 L 357.957 38.767 Z M 423.586 38.767 L 423.586 0.621 L 429.9 0.621 L 429.9 38.767 L 423.586 38.767 Z M 36.334 38.767 L 36.334 0.621 L 42.545 0.621 L 42.545 38.767 L 36.334 38.767 Z M 279.492 38.767 L 279.492 0.621 L 285.703 0.621 L 285.703 38.767 L 279.492 38.767 Z M 158.482 22.98 L 158.482 16.925 A 123.292 123.292 0 0 1 161.753 18.471 A 134.613 134.613 0 0 1 161.976 18.581 A 14.86 14.86 0 0 1 165.211 20.729 A 10.27 10.27 0 0 1 167.533 23.696 A 11.646 11.646 0 0 1 167.592 23.809 A 7.89 7.89 0 0 1 168.276 25.77 Q 168.523 26.924 168.523 28.312 A 9.734 9.734 0 0 1 167.825 31.935 Q 167.126 33.694 165.858 35.118 A 10.664 10.664 0 0 1 163.527 37.065 A 12.674 12.674 0 0 1 162.727 37.524 A 11.719 11.719 0 0 1 159.929 38.557 A 14.486 14.486 0 0 1 158.482 38.818 L 158.482 33.85 Q 162.727 32.814 162.727 28.208 A 4.525 4.525 0 0 0 162.482 26.694 A 3.934 3.934 0 0 0 161.536 25.206 Q 160.346 24.016 158.482 22.98 Z M 156.36 0.155 L 156.36 5.59 A 5.733 5.733 0 0 0 153.617 7.583 A 5.978 5.978 0 0 0 152.934 8.698 A 4.154 4.154 0 0 0 152.53 10.455 A 6.11 6.11 0 0 0 152.683 11.86 A 4.25 4.25 0 0 0 153.617 13.716 Q 154.704 14.958 156.36 15.89 L 156.36 21.79 A 64.793 64.793 0 0 1 152.944 20.004 Q 151.236 19.047 149.839 17.753 A 11.227 11.227 0 0 1 147.536 14.751 Q 146.63 13.043 146.63 10.662 A 11.477 11.477 0 0 1 146.849 8.374 A 9.216 9.216 0 0 1 147.406 6.573 Q 148.183 4.762 149.502 3.39 Q 150.822 2.019 152.608 1.216 Q 154.394 0.414 156.36 0.155 Z M 218.314 38.767 L 218.314 34.057 L 233.738 34.057 L 233.738 38.767 L 218.314 38.767 Z M 218.314 0.621 L 233.738 0.621 L 233.738 5.331 L 218.314 5.331 L 218.314 0.621 Z M 327.73 38.767 L 327.73 34.057 L 343.154 34.057 L 343.154 38.767 L 327.73 38.767 Z M 327.73 0.621 L 343.154 0.621 L 343.154 5.331 L 327.73 5.331 L 327.73 0.621 Z M 432.022 38.767 L 432.022 34.057 L 447.446 34.057 L 447.446 38.767 L 432.022 38.767 Z M 432.022 0.621 L 447.446 0.621 L 447.446 5.331 L 432.022 5.331 L 432.022 0.621 Z M 232.134 17.339 L 232.134 21.583 L 218.314 21.583 L 218.314 17.339 L 232.134 17.339 Z M 341.55 17.339 L 341.55 21.583 L 327.73 21.583 L 327.73 17.339 L 341.55 17.339 Z M 445.842 17.339 L 445.842 21.583 L 432.022 21.583 L 432.022 17.339 L 445.842 17.339 Z M 146.371 36.23 L 147.458 31.779 A 8.016 8.016 0 0 0 148.056 32.086 Q 148.396 32.244 148.795 32.398 A 16.363 16.363 0 0 0 149.295 32.582 A 40.114 40.114 0 0 0 151.599 33.306 Q 152.789 33.643 153.979 33.85 A 14.431 14.431 0 0 0 155.27 34.017 A 11.437 11.437 0 0 0 156.205 34.057 L 156.36 34.057 L 156.36 38.974 L 156.257 38.974 A 25.944 25.944 0 0 1 154.024 38.875 A 28.658 28.658 0 0 1 153.695 38.844 Q 152.375 38.715 151.029 38.404 A 13.957 13.957 0 0 1 148.467 37.55 A 8.873 8.873 0 0 1 147.142 36.823 A 7.349 7.349 0 0 1 146.371 36.23 Z M 200.82 4.141 L 196.524 7.971 A 9.803 9.803 0 0 0 195.315 6.809 A 7.465 7.465 0 0 0 193.988 5.952 Q 192.643 5.279 191.09 5.176 L 191.09 0.052 Q 196.887 0.311 200.82 4.141 Z M 414.528 4.141 L 410.232 7.971 A 9.803 9.803 0 0 0 409.023 6.809 A 7.465 7.465 0 0 0 407.696 5.952 Q 406.351 5.279 404.798 5.176 L 404.798 0.052 Q 410.595 0.311 414.528 4.141 Z M 191.09 39.025 L 191.09 33.901 Q 192.643 33.746 194.014 33.073 A 7.697 7.697 0 0 0 195.865 31.785 A 9.436 9.436 0 0 0 196.524 31.106 L 200.82 34.885 Q 198.854 36.8 196.421 37.835 A 15.187 15.187 0 0 1 192.248 38.926 A 17.874 17.874 0 0 1 191.09 39.025 Z M 404.798 39.025 L 404.798 33.901 Q 406.351 33.746 407.722 33.073 A 7.697 7.697 0 0 0 409.573 31.785 A 9.436 9.436 0 0 0 410.232 31.106 L 414.528 34.885 Q 412.562 36.8 410.129 37.835 A 15.187 15.187 0 0 1 405.956 38.926 A 17.874 17.874 0 0 1 404.798 39.025 Z M 82.036 26.655 L 88.972 26.655 L 90.473 30.848 L 80.587 30.848 L 82.036 26.655 Z M 158.482 5.228 L 158.482 0 A 28.76 28.76 0 0 1 163.115 0.492 A 14.615 14.615 0 0 1 164.754 0.891 Q 165.561 1.141 166.222 1.47 A 7.268 7.268 0 0 1 166.919 1.863 A 32.354 32.354 0 0 1 166.583 2.568 A 43.481 43.481 0 0 1 166.194 3.338 A 996.148 996.148 0 0 1 165.793 4.115 A 811.411 811.411 0 0 1 165.418 4.839 Q 165.056 5.538 164.797 6.004 A 23.884 23.884 0 0 1 164.735 6.114 Q 164.532 6.476 164.486 6.521 A 1.936 1.936 0 0 1 164.296 6.432 Q 164.103 6.329 163.865 6.159 A 2.577 2.577 0 0 0 163.579 5.984 Q 163.272 5.82 162.83 5.667 A 6.736 6.736 0 0 0 162.274 5.504 Q 161.769 5.376 161.122 5.279 A 7.808 7.808 0 0 0 160.539 5.216 Q 159.666 5.151 158.482 5.228 Z" vector-effect="non-scaling-stroke"/></g></svg>